<svg width="96" height="96" viewBox="0 0 96 96" fill="none" xmlns="http://www.w3.org/2000/svg">
  <!-- Внешний круг с glassmorphism эффектом -->
  <circle cx="48" cy="48" r="44" fill="url(#gradient1)" stroke="rgba(200, 200, 200, 0.3)" stroke-width="1"/>
  
  <!-- Внутренний контейнер с закругленными углами -->
  <rect x="16" y="16" width="64" height="64" rx="12" ry="12" fill="url(#gradient2)" stroke="rgba(180, 180, 180, 0.4)" stroke-width="0.5"/>
  
  <!-- Щит -->
  <path d="M48 24 L60 32 L60 48 C60 56 54 64 48 64 C42 64 36 56 36 48 L36 32 Z" 
        fill="url(#gradient3)" 
        stroke="rgba(200, 200, 200, 0.6)" 
        stroke-width="1" 
        stroke-linejoin="round"/>
  
  <!-- Внутренний элемент щита -->
  <path d="M48 28 L54 32 L54 48 C54 54 51 58 48 58 C45 58 42 54 42 48 L42 32 Z" 
        fill="rgba(255, 255, 255, 0.1)" 
        stroke="rgba(220, 220, 220, 0.3)" 
        stroke-width="0.5"/>
  
  <!-- Центральная точка -->
  <circle cx="48" cy="44" r="2" fill="rgba(255, 255, 255, 0.8)"/>
  
  <!-- Градиенты -->
  <defs>
    <linearGradient id="gradient1" x1="0%" y1="0%" x2="100%" y2="100%">
      <stop offset="0%" style="stop-color:#2a2e30;stop-opacity:0.9" />
      <stop offset="100%" style="stop-color:#1f2224;stop-opacity:0.9" />
    </linearGradient>
    <linearGradient id="gradient2" x1="0%" y1="0%" x2="100%" y2="100%">
      <stop offset="0%" style="stop-color:#3a3e40;stop-opacity:0.8" />
      <stop offset="100%" style="stop-color:#2a2e30;stop-opacity:0.8" />
    </linearGradient>
    <linearGradient id="gradient3" x1="0%" y1="0%" x2="100%" y2="100%">
      <stop offset="0%" style="stop-color:#4a4e50;stop-opacity:0.9" />
      <stop offset="100%" style="stop-color:#3a3e40;stop-opacity:0.9" />
    </linearGradient>
  </defs>
</svg>